<?xml version="1.0" encoding="UTF-8"?>
<svg id="Layer_1" data-name="Layer 1" xmlns="http://www.w3.org/2000/svg" viewBox="0 0 512 513.85">
  <defs>
    <style>
      .cls-1 {
        fill: #fff;
      }
    </style>
  </defs>
  <rect width="512" height="513.85"/>
  <path class="cls-1" d="M440.36,256c0,103.85-84.19,188.04-188.04,188.04s-188.04-84.19-188.04-188.04S148.46,67.96,252.32,67.96s188.04,84.19,188.04,188.04ZM20.88,256c0,127.82,103.62,231.43,231.43,231.43s231.43-103.62,231.43-231.43S380.13,24.57,252.32,24.57,20.88,128.18,20.88,256ZM230.62,133.05v116.35l-54.24,81.36c-6.69,9.94-3.98,23.41,6.06,30.1s23.41,3.98,30.1-6.06l57.86-86.79c2.35-3.53,3.62-7.77,3.62-12.02v-122.95c0-12.02-9.67-21.7-21.7-21.7s-21.7,9.67-21.7,21.7h0Z"/>
</svg>